# xmcd CD database file
#
# Track frame offsets:
#	150
#	16407
#	34092
#	49997
#	64847
#	79840
#	106952
#	116320
#	130292
#	146015
#	156770
#	176457
#
# Disc length: 2557 seconds
#
# Revision: 1
# Processed by: cddbd v1.5.1PL0 Copyright (c) Steve Scherf et al.
# Submitted via: CDex 1.60beta1
#
DISCID=9e09fb0c
DTITLE=Leika and The Waiters - LET IT BE
DYEAR=1900
DGENRE=Jazz
TTITLE0=ONE AFTER 909
TTITLE1=DRIVE MY CAR
TTITLE2=I CALL YOUR NANE
TTITLE3=FOR NO ONE
TTITLE4=EVERY LITTLE THING
TTITLE5=FOOL ON THE HILL
TTITLE6=LET IT BE
TTITLE7=I WILL
TTITLE8=HERE THERE AND EVERY WHERE
TTITLE9=I'LL FOLLOW THE SUN
TTITLE10=GOOD NIGHT
TTITLE11=YESTERDAY
EXTD=
EXTT0=
EXTT1=
EXTT2=
EXTT3=
EXTT4=
EXTT5=
EXTT6=
EXTT7=
EXTT8=
EXTT9=
EXTT10=
EXTT11=
PLAYORDER=
